<?xml version="1.0" standalone="no"?>
<!DOCTYPE svg PUBLIC "-//W3C//DTD SVG 20010904//EN"
 "http://www.w3.org/TR/2001/REC-SVG-20010904/DTD/svg10.dtd">
<svg version="1.0" xmlns="http://www.w3.org/2000/svg"
 width="500.000000pt" height="500.000000pt" viewBox="0 0 500.000000 500.000000"
 preserveAspectRatio="xMidYMid meet">
<metadata>
Created by potrace 1.14, written by Peter Selinger 2001-2017
</metadata>
<g transform="translate(0.000000,500.000000) scale(0.100000,-0.100000)"
fill="#000000" stroke="none">
<path d="M2347 4144 c-1 -1 -42 -4 -92 -8 -49 -3 -101 -8 -115 -10 -14 -2 -47
-7 -75 -11 -305 -40 -616 -213 -740 -410 -131 -210 -116 -486 40 -730 121
-189 316 -374 684 -645 538 -397 717 -562 808 -745 123 -247 32 -512 -223
-645 -31 -17 -65 -30 -76 -30 -10 0 -17 -4 -13 -9 3 -5 15 -8 28 -6 12 2 47 6
77 9 86 8 246 43 305 66 11 5 54 21 95 36 41 16 92 38 112 51 21 13 40 23 43
23 3 0 38 21 78 47 85 55 219 187 269 264 78 121 114 260 104 395 -17 211
-112 387 -327 604 -80 81 -130 125 -273 240 -10 8 -23 20 -30 26 -6 5 -99 72
-206 149 -294 209 -395 289 -510 405 -172 172 -237 288 -247 440 -10 153 35
281 130 366 55 49 141 97 195 109 18 4 31 10 27 13 -5 6 -62 11 -68 6z"/>
<path d="M3400 4119 c-20 -10 -65 -23 -100 -27 -94 -13 -332 -5 -432 14 -15 3
-42 7 -60 9 -18 1 -51 6 -73 9 -30 5 -20 -1 38 -23 286 -109 536 -388 643
-716 l33 -100 0 428 c1 235 -2 426 -6 426 -5 -1 -24 -10 -43 -20z"/>
<path d="M3106 2814 c-24 -23 -20 -37 19 -71 36 -32 44 -52 23 -54 -25 -3 -43
3 -61 19 -23 21 -35 7 -13 -17 21 -23 64 -33 88 -20 30 16 22 54 -18 84 -32
25 -34 29 -20 43 13 14 19 14 43 2 15 -8 31 -16 36 -18 4 -2 7 1 7 7 0 12 -52
41 -74 41 -8 0 -22 -7 -30 -16z"/>
<path d="M3280 2762 c0 -6 9 -17 21 -26 21 -14 21 -14 -15 -71 -20 -31 -34
-61 -30 -67 4 -6 24 17 46 51 34 53 41 60 58 51 29 -15 48 -13 30 4 -26 24
-110 68 -110 58z"/>
<path d="M3421 2609 c-37 -22 -48 -58 -30 -100 24 -58 101 -70 139 -21 57 72
-30 169 -109 121z m82 -21 c46 -36 19 -108 -41 -108 -25 0 -35 6 -47 30 -20
38 -19 46 5 70 23 23 58 26 83 8z"/>
<path d="M3580 2420 c-53 -38 -72 -60 -53 -60 5 0 28 14 51 31 23 17 42 27 42
22 0 -4 -9 -37 -20 -73 -11 -35 -16 -68 -12 -72 9 -9 126 70 130 89 3 10 -16
2 -52 -21 l-56 -36 14 35 c8 19 13 35 11 35 -2 0 2 18 10 39 12 36 11 52 -4
51 -3 0 -31 -19 -61 -40z"/>
<path d="M3698 2222 c-38 -15 -68 -31 -68 -37 0 -19 33 -95 41 -95 13 0 11 12
-6 52 -14 34 -13 36 10 46 22 10 25 8 37 -23 6 -19 18 -35 24 -35 10 0 9 9 -2
36 -13 30 -13 38 -2 45 24 16 35 9 48 -31 11 -35 30 -55 30 -32 0 14 -34 102
-39 101 -4 0 -36 -12 -73 -27z"/>
<path d="M1593 2171 c-163 -48 -285 -172 -337 -344 -83 -273 94 -579 439 -761
126 -67 295 -122 469 -155 58 -11 60 2 4 18 -129 38 -222 140 -211 229 6 47
15 61 107 160 145 158 195 323 150 496 -44 169 -168 300 -339 358 -62 21 -209
21 -282 -1z"/>
<path d="M3803 2028 l-33 -32 -43 21 c-33 16 -44 18 -44 7 0 -7 18 -20 39 -29
l39 -15 -31 -33 c-16 -17 -30 -35 -30 -39 0 -18 20 -6 47 26 l28 34 39 -19
c46 -22 46 -22 46 -9 0 6 -16 18 -35 27 l-35 17 26 27 c38 39 25 56 -13 17z"/>
<path d="M3706 1731 c-3 -5 5 -12 18 -15 21 -5 25 -12 24 -48 0 -45 19 -68 58
-68 30 0 46 23 54 75 l7 44 -36 5 c-96 15 -120 16 -125 7z m127 -30 c10 -1 9
-39 -3 -62 -22 -41 -70 -10 -62 40 4 27 8 31 31 27 14 -2 29 -5 34 -5z"/>
<path d="M3676 1542 c-11 -10 -6 -22 8 -22 20 0 26 -12 19 -38 -3 -12 -13 -22
-22 -22 -10 0 -26 -7 -37 -16 -18 -14 -17 -15 19 -9 29 5 37 3 37 -9 0 -17 29
-36 54 -36 21 0 51 34 63 73 l10 33 -73 26 c-40 14 -75 23 -78 20z m116 -60
c11 -11 -20 -72 -36 -72 -8 0 -21 7 -30 15 -12 12 -13 21 -4 46 9 26 14 30 37
24 14 -3 29 -9 33 -13z"/>
<path d="M3576 1320 c-28 -51 -31 -60 -18 -60 4 0 16 16 26 35 20 36 31 41 54
26 12 -7 11 -14 -3 -40 -24 -47 -13 -61 14 -18 19 31 25 35 42 27 23 -13 23
-12 -1 -52 -21 -35 -25 -48 -12 -48 8 0 65 90 60 95 -2 1 -33 21 -69 43 l-67
40 -26 -48z"/>
<path d="M3479 1180 c-33 -33 -36 -66 -7 -84 13 -8 26 -5 57 12 23 13 45 20
51 17 17 -11 11 -33 -15 -53 -17 -13 -22 -23 -15 -27 15 -9 60 33 60 56 0 52
-33 63 -84 30 -55 -36 -77 0 -26 42 17 14 30 28 30 31 0 15 -24 3 -51 -24z"/>
<path d="M3347 1064 c-3 -5 12 -33 34 -61 36 -47 43 -83 18 -83 -5 0 -9 -4 -9
-10 0 -17 15 -11 63 26 26 20 44 41 41 46 -3 5 -15 1 -26 -9 -19 -17 -21 -17
-51 22 -18 21 -39 48 -48 59 -9 10 -18 15 -22 10z"/>
</g>
</svg>
